<svg version="1.2" xmlns="http://www.w3.org/2000/svg" viewBox="0 0 668 668" width="668" height="668"><style>.a{fill:#222}</style><path fill-rule="evenodd" class="a" d="m328 164c95.3-20.7 192-23.7 287.7-8-59-93.3-163.1-155.3-281.7-155.3-103.7 0-196.3 47.3-257.7 121.6 14.7 43.4 33.4 84.7 55.7 124 12.7 22.7 45 21.7 58-0.6 28.3-47.7 79.3-79.7 138-81.7zm-136.7 260.7c-66.6-71.3-118.6-152.7-154.3-242.7-50 98.7-49.7 219.7 11.3 321.4 53.4 89 141.4 144.3 236.7 158.6 29.7-35 55.7-72.3 78-111.3 13-22.7-4.7-49.7-30.7-49.7-55.6 0.4-109.3-27-141-76.3zm28.4-90.8c0 20.4 5 39.4 15.3 57.4 20.3 35 58 57 98.7 57 40.6 0 78.6-22 98.6-57 10.4-18 15.7-37 15.7-57.4 0-63-51.3-114-114.3-114-62.7-0.3-114 51-114 114zm425.6-119.3c-45.6-9.6-92-15-138-15.6-26.3-0.4-41.3 28.3-28.3 51.3 13.3 23.7 21 51 21 80 0 28-7.3 55.7-21 80.3-31.3 96-78 181.4-139.7 256.7 181.7-3 328-151 328-333.3 0-42-7.6-82.4-22-119.4z"/></svg>