<svg version="1.2" xmlns="http://www.w3.org/2000/svg" viewBox="0 0 32 32" width="32" height="32"><style>.a{fill:#222}</style><path class="a" d="m30.8 10.1c-0.7-1.7-2.1-3.5-3.2-4.1 0.9 1.8 1.5 3.6 1.7 4.9-1.9-4.5-4.9-6.3-7.4-10.3q-0.2-0.3-0.4-0.6-0.1-0.1-0.2-0.3-0.1-0.3-0.2-0.7 0 0-0.1 0 0 0 0 0 0 0 0 0 0 0 0 0c-3.6 2.1-5 5.7-5.4 8.1q-1.7 0.1-3.2 0.8c-0.2 0.1-0.3 0.3-0.2 0.5 0.1 0.2 0.3 0.3 0.5 0.2q1.4-0.6 2.8-0.7h0.1q0.2 0 0.4 0 1.2 0 2.3 0.3h0.1q0.2 0.1 0.4 0.2 0.1 0 0.3 0.1 0.1 0 0.2 0.1 0.1 0 0.3 0.1l0.1 0.1q0.2 0.1 0.4 0.2 0.1 0 0.2 0.1c1.1 0.7 2.1 1.7 2.8 2.9-0.9-0.6-2.4-1.2-3.9-1 5.8 2.9 4.2 12.8-3.8 12.5q-1-0.1-2.1-0.4-0.2-0.1-0.4-0.2-0.2-0.1-0.3-0.2c-2-1-3.6-2.9-3.8-5.2 0 0 0.8-2.8 5.3-2.8 0.5 0 1.9-1.3 2-1.7-0.1-0.2-2.8-1.3-3.9-2.3-0.6-0.6-0.9-0.9-1.1-1.1q-0.2-0.2-0.5-0.3c-0.3-1.3-0.3-2.6 0-3.9-1.6 0.7-2.9 1.9-3.8 3h-0.1c-0.6-0.9-0.5-3.5-0.5-4.1 0 0-0.5 0.3-0.5 0.3q-0.9 0.6-1.6 1.4-0.8 0.8-1.5 1.8c-1 1.4-1.8 3.1-2.2 4.8 0 0-0.1 0.7-0.2 1.5q0 0.2-0.1 0.4 0 0.4-0.1 0.9 0 0.3 0 0.6c0 8.9 7.2 16.1 16 16.1 7.9 0 14.5-5.8 15.8-13.3q0.1-0.4 0.1-0.7c0.3-2.7 0-5.6-1.1-8zm-23-3q0 0 0 0zm3.8 1.9q0 0 0 0z"/></svg>