<svg version="1.2" xmlns="http://www.w3.org/2000/svg" viewBox="0 0 801 801" width="16" height="16">
	<style>
		.s0 { fill: #222222 } 
	</style>
	<g>
		<g>
			<g>
				<path class="s0" d="m448 577.33c-10.67 2.67-26.67 8-46.67 8-36 0-70.66-9.33-100-29.33-29.33-20-52-45.34-68-77.33l-170.66-298.67-12 20c-33.34 60-50.67 126.67-50.67 200 0 100 33.33 188 97.33 262.67 64 73.33 146.67 118.66 242.67 133.33l9.33 1.33 134.67-230.67zm-113.33 189.34c-85.34-14.67-158.67-56-217.34-122.67-60-69.33-90.66-150.67-90.66-244 0-60 12-116 36-165.33l144 256c17.33 34.66 42.66 64 77.33 86.66 34.67 21.34 73.33 33.34 114.67 33.34 10.66 0 20-1.34 28-2.67z"/>
				<path class="s0" d="m220 350.67c9.33-40 32-73.34 66.67-100 32-25.34 69.33-37.34 113.33-37.34h354.67l-12-20c-33.34-57.33-80-102.66-144-140-60-36-126.67-53.33-198.67-53.33-61.33 0-121.33 13.33-174.67 40-57.33 28-106.66 68-141.33 114.67l-5.33 6.66 133.33 218.67zm-109.33-186.67c32-41.33 74.66-74.66 126.66-100 49.34-25.33 104-37.33 162.67-37.33 66.67 0 129.33 17.33 184 50.66 53.33 30.67 92 66.67 122.67 110.67h-308c-49.34 0-92 13.33-129.34 42.67-30.66 24-53.33 52-66.66 85.33z"/>
				<path class="s0" d="m770.67 249.33l-4-8h-265.34l22.67 22.67c40 40 61.33 88 61.33 136 0 38.67-10.66 74.67-33.33 106.67l-170.67 293.33h22.67c109.33-1.33 202.67-41.33 280-118.67 77.33-77.33 116-172 116-281.33 0-40-5.33-97.33-29.33-150.67zm-105.34 413.34c-66.66 66.66-145.33 102.66-237.33 109.33l145.33-250.67c25.34-37.33 37.34-77.33 37.34-121.33 0-46.67-16-92-48-132h186.67c19.99 46.67 23.99 97.33 23.99 132 0 101.33-36 189.33-108 262.67z"/>
				<path class="s0" d="m240 400c0 86.67 73.33 160 160 160 86.67 0 160-73.33 160-160 0-86.67-73.33-160-160-160-86.67 0-160 73.33-160 160zm160-133.33c72 0 133.33 61.33 133.33 133.33 0 72-61.33 133.33-133.33 133.33-72 0-133.33-61.33-133.33-133.33 0-72 61.33-133.33 133.33-133.33z"/>
			</g>
		</g>
	</g>
</svg>