<svg version="1.2" xmlns="http://www.w3.org/2000/svg" viewBox="0 0 16 16" width="16" height="16">
	<style>
		.s0 { fill: #ffffff } 
	</style>
	<g>
		<path class="s0" d="m3 6.03h10v7.06c0 0.49-0.47 0.94-1 0.94h-8c-0.54 0-1-0.43-1-1z"/>
		<path class="s0" d="m6.79 1q-0.11 0-0.21 0.03-0.11 0.03-0.2 0.08-0.1 0.05-0.19 0.12-0.08 0.06-0.15 0.15l-2.81 3.46q-0.06 0.06-0.1 0.14-0.04 0.07-0.07 0.15-0.03 0.08-0.05 0.17-0.01 0.08-0.01 0.17v1q0.01 0.41 0.29 0.71 0.3 0.28 0.71 0.29 0.41-0.01 0.71-0.29 0.28-0.3 0.29-0.71v-0.65l2.59-3.18q0.19-0.23 0.23-0.52 0.03-0.29-0.1-0.56-0.13-0.26-0.38-0.42-0.25-0.15-0.55-0.14zm2.22 3q-0.39 0.01-0.68 0.28-0.28 0.27-0.31 0.65-0.02 0.39 0.21 0.7 0.25 0.3 0.63 0.36l2.17 0.38v0.16q0.01 0.41 0.29 0.71 0.3 0.29 0.71 0.29 0.41 0 0.71-0.29 0.29-0.3 0.29-0.71v-1q0-0.17-0.06-0.34-0.06-0.17-0.17-0.3-0.12-0.14-0.27-0.22-0.15-0.09-0.33-0.12l-2.99-0.53q-0.03 0-0.05-0.01-0.03 0-0.05 0-0.03 0-0.05 0-0.03-0.01-0.05-0.01z"/>
	</g>
</svg>